<svg height="512" width="512" xmlns="http://www.w3.org/2000/svg"><path d="m391.7124023 251.7098999h39.9418335v50.3013916h-13.2902222l-2.128418-10.5524292c-14.5505371 21.9005737-70.9798584 18.4840088-72.9368286-35.6621704-.3933716-61.2629395 80.4608154-63.9138794 86.883667-16.3168335h-19.998474c-3.8998413-16.6723022-22.149353-18.8163452-33.2137451-12.2067871-9.5514526 5.7057495-13.2216187 17.6619873-12.7871704 28.5574341.0909424 19.0661011 10.117981 33.0980835 29.4458618 30.9448242 9.446167-1.0523682 17.9315186-6.0913086 19.1486206-19.7606201h-21.0651245v-15.3048096zm73.887085 32.9636841v-75.7381592h-20.8842163v93.0048218h67.284729v-17.2666626zm-320.8326416-4.8648682c-9.6394958 23.1973267-40.2937622 30.3251343-61.7679443 19.0335083 52.9602051 45.03125 184.5293579 66.0358887 283.8353882 14.6589966-126.9734498 103.795166-367.9934693 44.5539551-366.8300782-57.6618042 1.2284546-107.9370117 252.2072144-157.5333862 367.2212525-57.2820435-85.9623413-48.6368408-225.9011841-34.0661621-282.6722412 12.3648071 31.8234863-16.5032348 83.7189788 12.3211518 60.213623 68.8865357zm-69.0115356-4.2551269c11.9292603 26.0456543 47.9160156 23.1627808 57.8571167-.5964355 10.9681396-26.2217407-.7040405-57.0787964-28.944519-57.7800903-27.1232301-.6735231-41.4592896 32.8278807-28.9125977 58.3765258zm258.6705932 26.3866577v-38.9666138c.6300659-12.34021-5.5241699-19.0352173-14.2294312-20.9328613-9.0223389-1.9667969-21.2120361-.2017822-26.7224121 10.043396v-9.3967896h-9.4509277v59.2528687h10.0404663v-33.4418335c0-11.6340332 8.7266235-21.5182495 23.0899048-17.2442017 3.9834595 1.1853638 6.9497681 4.2335205 7.2318726 10.6005859v40.0854492h10.0405273zm-165.4371338-59.2528687v8.0199585c3.6342163-9.8171387 28.5830688-14.8952026 40.6027222-.1281128 4.3153687 5.3017578 6.7307739 12.8049316 6.7307739 21.7497559 0 4.7070312-1.1108398 16.1723022-8.0854492 23.4713135-8.5493164 8.9469604-29.5581665 11.3991089-39.2480469-1.8497314v30.5543213h-10.0410156v-81.8175049h10.0410156zm9.2922974 49.5341187c11.8815918 5.8095093 27.5484619 2.7587891 28.2406616-19.8306274.5618286-18.3345947-15.7063599-27.6960449-28.1124878-19.6744995-12.6304321 8.1665038-12.303833 30.6751708-.1281738 39.5051269zm53.7178345-16.9661255c-.2644043 5.8082886 1.8255615 11.6194458 6.4920044 15.5081177 7.7540283 6.4616699 25.5982666 5.8652344 28.046814-7.6596069h9.8521118c-3.5476685 22.0188599-29.8406982 23.7874756-42.8692627 15.3571777-9.236145-5.9763184-11.7044067-16.8378296-12.1646118-26.3604736.3344727-41.1824341 57.9259033-42.140686 56.0254517 3.1547852h-45.3825074zm0-8.6333008h34.7401123c-2.800293-23.66156-33.3772583-21.1884155-34.7401123 0z"/></svg>